<mxfile host="app.diagrams.net" modified="2022-12-13T20:06:10.183Z" agent="5.0 (Windows NT 10.0; Win64; x64) AppleWebKit/537.36 (KHTML, like Gecko) Chrome/108.0.0.0 Safari/537.36" etag="ZD12gbcVJMdBAUNXTv98" version="20.5.1" type="github">
  <diagram id="zKUmJzLRX71_9fTmacdb" name="Page-1">
    <mxGraphModel dx="2844" dy="1588" grid="1" gridSize="10" guides="1" tooltips="1" connect="1" arrows="1" fold="1" page="1" pageScale="1" pageWidth="850" pageHeight="1100" background="#114B5F" math="0" shadow="0">
      <root>
        <mxCell id="0" />
        <mxCell id="1" parent="0" />
        <mxCell id="M7b8skEu5nL4Gr79lSTo-1" value="" style="whiteSpace=wrap;html=1;aspect=fixed;fillColor=#F45B69;strokeColor=#028090;fontColor=#E4FDE1;rounded=1;" vertex="1" parent="1">
          <mxGeometry x="80" y="640" width="80" height="80" as="geometry" />
        </mxCell>
        <mxCell id="M7b8skEu5nL4Gr79lSTo-2" value="" style="whiteSpace=wrap;html=1;aspect=fixed;fillColor=#F45B69;strokeColor=#028090;fontColor=#E4FDE1;rounded=1;" vertex="1" parent="1">
          <mxGeometry x="160" y="640" width="80" height="80" as="geometry" />
        </mxCell>
        <mxCell id="M7b8skEu5nL4Gr79lSTo-3" value="" style="whiteSpace=wrap;html=1;aspect=fixed;fillColor=#F45B69;strokeColor=#028090;fontColor=#E4FDE1;rounded=1;" vertex="1" parent="1">
          <mxGeometry x="240" y="640" width="80" height="80" as="geometry" />
        </mxCell>
        <mxCell id="M7b8skEu5nL4Gr79lSTo-4" value="" style="whiteSpace=wrap;html=1;aspect=fixed;fillColor=#F45B69;strokeColor=#028090;fontColor=#E4FDE1;rounded=1;" vertex="1" parent="1">
          <mxGeometry x="320" y="640" width="80" height="80" as="geometry" />
        </mxCell>
        <mxCell id="M7b8skEu5nL4Gr79lSTo-5" value="" style="whiteSpace=wrap;html=1;aspect=fixed;fillColor=#F45B69;strokeColor=#028090;fontColor=#E4FDE1;rounded=1;" vertex="1" parent="1">
          <mxGeometry x="400" y="640" width="80" height="80" as="geometry" />
        </mxCell>
        <mxCell id="M7b8skEu5nL4Gr79lSTo-18" style="edgeStyle=orthogonalEdgeStyle;rounded=1;orthogonalLoop=1;jettySize=auto;html=1;exitX=0.75;exitY=1;exitDx=0;exitDy=0;strokeColor=#028090;fontColor=#E4FDE1;fillColor=#F45B69;startArrow=none;" edge="1" parent="1" source="M7b8skEu5nL4Gr79lSTo-19" target="M7b8skEu5nL4Gr79lSTo-17">
          <mxGeometry relative="1" as="geometry" />
        </mxCell>
        <mxCell id="M7b8skEu5nL4Gr79lSTo-6" value="" style="whiteSpace=wrap;html=1;aspect=fixed;fillColor=#F45B69;strokeColor=#028090;fontColor=#E4FDE1;rounded=1;" vertex="1" parent="1">
          <mxGeometry x="480" y="640" width="80" height="80" as="geometry" />
        </mxCell>
        <mxCell id="M7b8skEu5nL4Gr79lSTo-7" value="" style="whiteSpace=wrap;html=1;aspect=fixed;fillColor=#F45B69;strokeColor=#028090;fontColor=#E4FDE1;rounded=1;" vertex="1" parent="1">
          <mxGeometry x="480" y="560" width="80" height="80" as="geometry" />
        </mxCell>
        <mxCell id="M7b8skEu5nL4Gr79lSTo-8" value="" style="whiteSpace=wrap;html=1;aspect=fixed;fillColor=#F45B69;strokeColor=#028090;fontColor=#E4FDE1;rounded=1;" vertex="1" parent="1">
          <mxGeometry x="480" y="480" width="80" height="80" as="geometry" />
        </mxCell>
        <mxCell id="M7b8skEu5nL4Gr79lSTo-9" value="" style="whiteSpace=wrap;html=1;aspect=fixed;fillColor=#F45B69;strokeColor=#028090;fontColor=#E4FDE1;rounded=1;" vertex="1" parent="1">
          <mxGeometry x="480" y="400" width="80" height="80" as="geometry" />
        </mxCell>
        <mxCell id="M7b8skEu5nL4Gr79lSTo-10" value="" style="whiteSpace=wrap;html=1;aspect=fixed;fillColor=#F45B69;strokeColor=#028090;fontColor=#E4FDE1;rounded=1;" vertex="1" parent="1">
          <mxGeometry x="560" y="400" width="80" height="80" as="geometry" />
        </mxCell>
        <mxCell id="M7b8skEu5nL4Gr79lSTo-11" value="" style="whiteSpace=wrap;html=1;aspect=fixed;fillColor=#F45B69;strokeColor=#028090;fontColor=#E4FDE1;rounded=1;" vertex="1" parent="1">
          <mxGeometry x="640" y="400" width="80" height="80" as="geometry" />
        </mxCell>
        <mxCell id="M7b8skEu5nL4Gr79lSTo-12" value="" style="whiteSpace=wrap;html=1;aspect=fixed;fillColor=#F45B69;strokeColor=#028090;fontColor=#E4FDE1;rounded=1;" vertex="1" parent="1">
          <mxGeometry x="850" y="400" width="80" height="80" as="geometry" />
        </mxCell>
        <mxCell id="M7b8skEu5nL4Gr79lSTo-13" value="" style="ellipse;whiteSpace=wrap;html=1;aspect=fixed;fillColor=#F45B69;strokeColor=#028090;fontColor=#E4FDE1;rounded=1;" vertex="1" parent="1">
          <mxGeometry x="575" y="240" width="50" height="50" as="geometry" />
        </mxCell>
        <mxCell id="M7b8skEu5nL4Gr79lSTo-14" value="" style="ellipse;whiteSpace=wrap;html=1;aspect=fixed;fillColor=#F45B69;strokeColor=#028090;fontColor=#E4FDE1;rounded=1;" vertex="1" parent="1">
          <mxGeometry x="760" y="310" width="40" height="40" as="geometry" />
        </mxCell>
        <mxCell id="M7b8skEu5nL4Gr79lSTo-16" style="edgeStyle=orthogonalEdgeStyle;rounded=1;orthogonalLoop=1;jettySize=auto;html=1;strokeColor=#028090;fontColor=#E4FDE1;fillColor=#F45B69;" edge="1" parent="1">
          <mxGeometry relative="1" as="geometry">
            <mxPoint x="390" y="580" as="sourcePoint" />
            <mxPoint x="370" y="580" as="targetPoint" />
            <Array as="points">
              <mxPoint x="380" y="565" />
              <mxPoint x="380" y="550" />
              <mxPoint x="420" y="550" />
            </Array>
          </mxGeometry>
        </mxCell>
        <mxCell id="M7b8skEu5nL4Gr79lSTo-15" value="Actor" style="shape=umlActor;verticalLabelPosition=bottom;verticalAlign=top;html=1;outlineConnect=0;strokeColor=#028090;fontColor=#E4FDE1;fillColor=#F45B69;rounded=1;" vertex="1" parent="1">
          <mxGeometry x="250" y="500" width="90" height="130" as="geometry" />
        </mxCell>
        <mxCell id="M7b8skEu5nL4Gr79lSTo-20" style="edgeStyle=orthogonalEdgeStyle;rounded=1;orthogonalLoop=1;jettySize=auto;html=1;strokeColor=#028090;fontColor=#E4FDE1;fillColor=#F45B69;" edge="1" parent="1" source="M7b8skEu5nL4Gr79lSTo-17" target="M7b8skEu5nL4Gr79lSTo-19">
          <mxGeometry relative="1" as="geometry" />
        </mxCell>
        <mxCell id="M7b8skEu5nL4Gr79lSTo-17" value="" style="whiteSpace=wrap;html=1;aspect=fixed;fillColor=#F45B69;strokeColor=#028090;fontColor=#E4FDE1;rounded=1;" vertex="1" parent="1">
          <mxGeometry x="1660" y="1050" width="80" height="80" as="geometry" />
        </mxCell>
        <mxCell id="M7b8skEu5nL4Gr79lSTo-19" value="" style="whiteSpace=wrap;html=1;aspect=fixed;fillColor=#F45B69;strokeColor=#028090;fontColor=#E4FDE1;rounded=1;" vertex="1" parent="1">
          <mxGeometry x="710" y="830" width="180" height="180" as="geometry" />
        </mxCell>
        <mxCell id="M7b8skEu5nL4Gr79lSTo-21" value="" style="edgeStyle=orthogonalEdgeStyle;rounded=1;orthogonalLoop=1;jettySize=auto;html=1;exitX=0.75;exitY=1;exitDx=0;exitDy=0;strokeColor=#028090;fontColor=#E4FDE1;fillColor=#F45B69;endArrow=none;" edge="1" parent="1" source="M7b8skEu5nL4Gr79lSTo-6" target="M7b8skEu5nL4Gr79lSTo-19">
          <mxGeometry relative="1" as="geometry">
            <mxPoint x="540" y="720" as="sourcePoint" />
            <mxPoint x="1700" y="1050" as="targetPoint" />
          </mxGeometry>
        </mxCell>
        <mxCell id="M7b8skEu5nL4Gr79lSTo-22" style="edgeStyle=orthogonalEdgeStyle;rounded=1;orthogonalLoop=1;jettySize=auto;html=1;exitX=0.75;exitY=0;exitDx=0;exitDy=0;entryX=1;entryY=0.25;entryDx=0;entryDy=0;strokeColor=#028090;fontColor=#E4FDE1;fillColor=#F45B69;" edge="1" parent="1" source="M7b8skEu5nL4Gr79lSTo-19" target="M7b8skEu5nL4Gr79lSTo-19">
          <mxGeometry relative="1" as="geometry" />
        </mxCell>
        <mxCell id="M7b8skEu5nL4Gr79lSTo-23" value="" style="shape=switch;whiteSpace=wrap;html=1;strokeColor=#028090;fontColor=#E4FDE1;fillColor=#F45B69;rounded=1;" vertex="1" parent="1">
          <mxGeometry x="1150" y="340" width="60" height="60" as="geometry" />
        </mxCell>
        <mxCell id="M7b8skEu5nL4Gr79lSTo-24" value="" style="whiteSpace=wrap;html=1;aspect=fixed;strokeColor=#028090;fontColor=#E4FDE1;fillColor=#F45B69;rounded=1;" vertex="1" parent="1">
          <mxGeometry x="930" y="400" width="80" height="80" as="geometry" />
        </mxCell>
        <mxCell id="M7b8skEu5nL4Gr79lSTo-25" value="" style="whiteSpace=wrap;html=1;aspect=fixed;strokeColor=#028090;fontColor=#E4FDE1;fillColor=#F45B69;rounded=1;" vertex="1" parent="1">
          <mxGeometry x="1010" y="400" width="80" height="80" as="geometry" />
        </mxCell>
        <mxCell id="M7b8skEu5nL4Gr79lSTo-26" value="" style="whiteSpace=wrap;html=1;aspect=fixed;strokeColor=#028090;fontColor=#E4FDE1;fillColor=#F45B69;rounded=1;" vertex="1" parent="1">
          <mxGeometry x="1090" y="400" width="80" height="80" as="geometry" />
        </mxCell>
        <mxCell id="M7b8skEu5nL4Gr79lSTo-27" value="" style="whiteSpace=wrap;html=1;aspect=fixed;strokeColor=#028090;fontColor=#E4FDE1;fillColor=#F45B69;rounded=1;" vertex="1" parent="1">
          <mxGeometry x="1170" y="400" width="80" height="80" as="geometry" />
        </mxCell>
      </root>
    </mxGraphModel>
  </diagram>
</mxfile>
